# xmcd CD database file
#
# Track frame offsets:
#	150
#	12289
#	25542
#	40629
#	53947
#	68831
#	84407
#	96942
#	108910
#	121224
#	133114
#	151864
#	165159
#	180242
#	195308
#	209402
#	220990
#	240662
#	256741
#	267359
#
# Disc length: 3893 seconds
#
# Revision: 0
# Processed by: cddbd v1.5PL3 Copyright (c) Steve Scherf et al.
# Submitted via: CDex 1.51
#
DISCID=fa0f3314
DTITLE=Ella Fitzgerald - Sophisticated Lady - The Greatest Hits III
DYEAR=2001
DGENRE=Jazz
TTITLE0=Whe My Sugar Walks Down The Street
TTITLE1=(I Put) A Four Leaf Clover In Your Pocket
TTITLE2=He's My Guy
TTITLE3=Cow Cow Boogie (Cuma-TiYi-Ti-Ay)
TTITLE4=And Her Tears Flowed Like Wine
TTITLE5=I'm Confessin (That I Love You)
TTITLE6=I'm Beginning To See The Light
TTITLE7=(It's Only) A Paper Moon
TTITLE8=Stone Cold Dead In The Market
TTITLE9=Petootie Pie
TTITLE10=I'll See You In My Dreams
TTITLE11=You Won't Be Satisfied
TTITLE12=I Didn't Mean A Word I Said
TTITLE13=Sentimental Journey
TTITLE14=Budella (Blue Skies)
TTITLE15=Love That Boy
TTITLE16=Mr. Paganini
TTITLE17=How High The Moon
TTITLE18=In A Mellowtone
TTITLE19=Flying Home
EXTD=YEAR: 2001
EXTT0=
EXTT1=
EXTT2=
EXTT3=
EXTT4=
EXTT5=
EXTT6=
EXTT7=
EXTT8=
EXTT9=
EXTT10=
EXTT11=
EXTT12=
EXTT13=
EXTT14=
EXTT15=
EXTT16=
EXTT17=
EXTT18=
EXTT19=
PLAYORDER=
